<svg xmlns="http://www.w3.org/2000/svg" width="30" height="30" viewBox="0 0 30 30">
    <g data-name="Grupo 9">
        <g data-name="Grupo 8">
            <path data-name="Trazado 6" d="M29.68 38.95 15.46 27.956a.746.746 0 0 0-.921 0L.318 38.95A.853.853 0 0 0 .15 40.1a.753.753 0 0 0 1.089.178L15 29.641l13.76 10.637a.748.748 0 0 0 .46.159.766.766 0 0 0 .63-.337.853.853 0 0 0-.17-1.15z" transform="translate(.001 -27.797)" style="fill:#00000"/>
        </g>
    </g>
    <g data-name="Grupo 11">
        <g data-name="Grupo 10">
            <path data-name="Trazado 7" d="M78.7 232.543a.8.8 0 0 0-.767.823v13.1H71.8v-7.151a3.846 3.846 0 1 0-7.672 0v7.151h-6.142v-13.1a.769.769 0 1 0-1.534 0v13.923a.8.8 0 0 0 .767.823h7.672a.791.791 0 0 0 .764-.759v-8.038a2.307 2.307 0 1 1 4.6 0v8.037a.791.791 0 0 0 .764.76H78.7a.8.8 0 0 0 .767-.823v-13.923a.8.8 0 0 0-.767-.823z" transform="translate(-52.959 -218.112)" style="fill:#00000"/>
        </g>
    </g>
</svg>
