<svg id="Layer_1" data-name="Layer 1" xmlns="http://www.w3.org/2000/svg" viewBox="0 0 40 30"><defs><style>.cls-1{fill:#a9bf58;}</style></defs><title>ICONO 1</title><g id="Grupo_9777" data-name="Grupo 9777"><path id="Trazado_7954" data-name="Trazado 7954" class="cls-1" d="M26.61,1.82l.16.07a1.59,1.59,0,0,1,1.09,1.53V6.33A1.57,1.57,0,0,1,28.7,9a1.57,1.57,0,0,1,.48,1.13,1.53,1.53,0,0,1-.47,1.14,1.61,1.61,0,0,1,0,2.3,1.53,1.53,0,0,1,.42,1.59,1.55,1.55,0,0,1-1.26,1.1v3.64a1.58,1.58,0,0,1-1.47,1.68h-.18c-.62,0-1.24,0-1.85,0a.34.34,0,0,0-.35.2,5.25,5.25,0,0,1-4.8,2.72.58.58,0,0,0-.35.15.8.8,0,0,0-.32,1.12,2,2,0,0,1-1,2.48,2.18,2.18,0,0,1-2.67-.54.4.4,0,0,1,.58-.54,3.15,3.15,0,0,0,.76.48,1.27,1.27,0,0,0,1.48-.58,1.33,1.33,0,0,0-.19-1.63c-.88-.9-1.78-1.78-2.67-2.68-.46-.46-.92-.94-1.4-1.4a1.31,1.31,0,0,0-1.86,0,1.24,1.24,0,0,0-.34.61,1.32,1.32,0,0,0,.37,1.32c.77.76,1.54,1.53,2.3,2.3.14.14.27.28.17.5a.39.39,0,0,1-.48.25.39.39,0,0,1-.16-.1c-.85-.85-1.72-1.69-2.54-2.57a2.06,2.06,0,0,1-.12-2.58,2.1,2.1,0,0,1,2.44-.79.35.35,0,0,0,.36-.09,1.47,1.47,0,0,0,.57-1.34c0-2.77,0-5.54,0-8.31a1.67,1.67,0,0,1,1.61-1.72h.14a4.05,4.05,0,0,1,.75.17V8.77c0-1.64,0-3.28,0-4.92a1.83,1.83,0,0,1,1.25-2h1.51c.14.16.27.32.18.55s-.32.24-.53.24h-.81a.76.76,0,0,0-.78.75.89.89,0,0,0,0,.22h9.59a.81.81,0,0,0-.45-.9,1.2,1.2,0,0,0-.46-.07H21.38c-.19,0-.36,0-.39-.23a1.38,1.38,0,0,1,.08-.45s.05-.07.07-.1ZM17.43,4.39V14.75a.41.41,0,0,0,.14.31,4.54,4.54,0,0,1,2,2.88c0,.21.13.27.34.27h7.11V16.27a1.49,1.49,0,0,1-1.48-1,1.5,1.5,0,0,1,.37-1.74,1.44,1.44,0,0,1-.49-1.15,1.55,1.55,0,0,1,.49-1.13,1.48,1.48,0,0,1-.49-1.14A1.51,1.51,0,0,1,25.94,9a1.49,1.49,0,0,1-.37-1.73,1.54,1.54,0,0,1,1.48-1V4.39Zm5.78,17.2h-.34c-1.05,0-2.11,0-3.16,0-.34,0-.61,0-.77.39a.34.34,0,0,1-.44.19l-.09-.05a.39.39,0,0,1-.15-.52l0-.05a4.2,4.2,0,0,0,.61-3,3.59,3.59,0,0,0-2-2.89.5.5,0,0,1-.29-.5c0-1.53,0-3.06,0-4.58a.84.84,0,0,0-.79-.87.93.93,0,0,0-.37.06c-.38.14-.53.38-.53.88,0,3,0,6,0,9a.78.78,0,0,1-.26.62c-.22.19-.42.4-.64.61L17.8,24.6c.19-.2.4-.4.59-.61a.72.72,0,0,1,.68-.28,4.46,4.46,0,0,0,4.14-2.12ZM27,19H19.79c-.07.59-.14,1.17-.22,1.75h6.75a.72.72,0,0,0,.72-.63c0-.37,0-.74,0-1.13Zm.28-3.54h.36a.73.73,0,0,0,.71-.69.71.71,0,0,0-.62-.78h0a3.87,3.87,0,0,0-.9,0,.67.67,0,0,0-.61.67.7.7,0,0,0,.56.76,4.57,4.57,0,0,0,.52.05Zm0-2.31h.36a.73.73,0,0,0,.71-.71.69.69,0,0,0-.64-.75h0a5.75,5.75,0,0,0-.83,0,.7.7,0,0,0-.66.73v0a.73.73,0,0,0,.69.71Zm0-3.76H27a.72.72,0,0,0-.72.7v0a.71.71,0,0,0,.68.74h.75a.71.71,0,0,0,.72-.72h0a.71.71,0,0,0-.69-.74h-.38Zm0-2.29h-.42a.71.71,0,0,0-.67.72.7.7,0,0,0,.66.74h0a5.47,5.47,0,0,0,.81,0,.74.74,0,0,0,0-1.47Z"/><path id="Trazado_7955" data-name="Trazado 7955" class="cls-1" d="M22.86,5.87a2.54,2.54,0,0,1-.23.34l-3.5,3.6a.4.4,0,0,1-.57.07l0,0a.4.4,0,0,1,0-.57l0,0,3.52-3.62c.13-.12.27-.22.44-.11A2.19,2.19,0,0,1,22.86,5.87Z"/><path id="Trazado_7956" data-name="Trazado 7956" class="cls-1" d="M20.4,5.88a3.45,3.45,0,0,1-.2.32c-.36.37-.71.74-1.07,1.1a.41.41,0,0,1-.57.07l0,0a.39.39,0,0,1,0-.56l0,0,1.11-1.14a.32.32,0,0,1,.44-.08A1.59,1.59,0,0,1,20.4,5.88Z"/></g></svg>