<svg xmlns="http://www.w3.org/2000/svg" width="45.285" height="48.237" viewBox="0 0 45.285 48.237">
    <path data-name="Trazado 111" d="M60.528 320.288a6.787 6.787 0 0 0-9.6 0l-4.242 4.242h-2.01a6.928 6.928 0 0 0 1.365-4.137 1.414 1.414 0 0 0-1.414-1.414h-4.695a11.1 11.1 0 0 1-4.567-1.433 14.6 14.6 0 0 0-5.306-1.7 14.952 14.952 0 0 0-5.154.562 4.571 4.571 0 0 0-3.265 3.956h-4.569a1.414 1.414 0 0 0-1.414 1.414v11.091a1.414 1.414 0 0 0 1.414 1.414h28.871a6.221 6.221 0 0 0 4.428-1.834l10.159-10.159a1.414 1.414 0 0 0-.001-2.002zm-42.043 2.9h3.135v8.263h-3.135zm29.885 7.257a3.411 3.411 0 0 1-2.428 1.006H24.448v-10.688a1.724 1.724 0 0 1 1.241-1.641 12.133 12.133 0 0 1 4.182-.458 12.3 12.3 0 0 1 4.286 1.439 13.371 13.371 0 0 0 5.775 1.7h3.032a4.145 4.145 0 0 1-3.6 2.712c-.068-.01-7.373-.017-7.373-.017a1.421 1.421 0 1 0-.019 2.842l15.3.013a1.413 1.413 0 0 0 1-.414l4.656-4.656a3.967 3.967 0 0 1 4.416-.817z" transform="translate(-15.657 -286.043)" style="fill:#a9bf59"/>
    <path data-name="Trazado 112" d="M147.215 29.527a14.763 14.763 0 1 0-14.763-14.763 14.78 14.78 0 0 0 14.763 14.763zm0-26.7a11.936 11.936 0 1 1-11.935 11.936 11.949 11.949 0 0 1 11.935-11.935z" transform="translate(-121.443)" style="fill:#a9bf59"/>
    <path data-name="Trazado 113" d="M227.215 97.773a1.818 1.818 0 1 0-1.818-1.818 1.838 1.838 0 0 0 1.818 1.818z" transform="translate(-205.627 -85.265)" style="fill:#a9bf59"/>
    <path data-name="Trazado 114" d="M314.169 183.756a1.818 1.818 0 1 0 1.818-1.818 1.849 1.849 0 0 0-1.818 1.818z" transform="translate(-286.031 -164.789)" style="fill:#a9bf59"/>
    <path data-name="Trazado 115" d="M243.143 79.807a1.413 1.413 0 0 0 1.851-.757l6.2-14.762a1.414 1.414 0 0 0-2.607-1.094l-6.2 14.762a1.414 1.414 0 0 0 .756 1.851z" transform="translate(-220.916 -56.452)" style="fill:#a9bf59"/>
</svg>
