<svg xmlns="http://www.w3.org/2000/svg" width="30" height="30" viewBox="0 0 30 30">
    <defs>
        <style>
            .cls-1{fill:none;stroke:#032835;stroke-width:1.5px}
        </style>
    </defs>
    <g id="user" transform="translate(-30.25 .75)">
        <g id="Grupo_19" data-name="Grupo 19" transform="translate(38.341)">
            <g id="Grupo_18" data-name="Grupo 18">
                <path id="Trazado_18" data-name="Trazado 18" class="cls-1" d="M128.659 0a7.659 7.659 0 1 0 7.659 7.659A7.668 7.668 0 0 0 128.659 0z" transform="translate(-121)"/>
            </g>
        </g>
        <g id="Grupo_21" data-name="Grupo 21" transform="translate(31 17.972)">
            <g id="Grupo_20" data-name="Grupo 20">
                <path id="Trazado_19" data-name="Trazado 19" class="cls-1" d="M57.2 303.3A14.023 14.023 0 0 0 48 300h-4a14.023 14.023 0 0 0-9.2 3.3 10.381 10.381 0 0 0-3.8 7.875.935.935 0 0 0 1 .851h28a.935.935 0 0 0 1-.851 10.381 10.381 0 0 0-3.8-7.875z" transform="translate(-31 -300)"/>
            </g>
        </g>
    </g>
</svg>
